<svg width="44" height="50" viewBox="0 0 44 50" fill="none" xmlns="http://www.w3.org/2000/svg">
<path d="M1.17188 47H0.336648L3.51136 38.2727H4.36364L7.53835 47H6.70312L3.96733 39.3082H3.90767L1.17188 47ZM1.77273 43.6548H6.10227V44.3707H1.77273V43.6548ZM11.3736 49.5909C10.9276 49.5909 10.5369 49.5327 10.2017 49.4162C9.86648 49.3026 9.58381 49.1463 9.35369 48.9474C9.12358 48.7486 8.9446 48.5256 8.81676 48.2784L9.43892 47.8693C9.53267 48.0341 9.65767 48.196 9.81392 48.3551C9.97301 48.5142 10.179 48.6463 10.4318 48.7514C10.6875 48.8565 11.0014 48.9091 11.3736 48.9091C11.9531 48.9091 12.4205 48.7642 12.7756 48.4744C13.1335 48.1847 13.3125 47.7344 13.3125 47.1236V45.6491H13.2443C13.1563 45.848 13.0298 46.0469 12.8651 46.2457C12.7003 46.4418 12.4844 46.6051 12.2173 46.7358C11.9531 46.8665 11.625 46.9318 11.233 46.9318C10.7102 46.9318 10.2457 46.8026 9.83949 46.544C9.43608 46.2855 9.1179 45.9162 8.88494 45.4361C8.65483 44.9531 8.53977 44.3778 8.53977 43.7102C8.53977 43.0483 8.65199 42.4659 8.87642 41.9631C9.10369 41.4602 9.42045 41.0682 9.8267 40.7869C10.233 40.5057 10.706 40.3651 11.2457 40.3651C11.6463 40.3651 11.9787 40.4361 12.2429 40.5781C12.5071 40.7173 12.7188 40.8906 12.8778 41.098C13.0398 41.3054 13.1662 41.5071 13.2571 41.7031H13.3338V40.4545H14.0753V47.1705C14.0753 47.7244 13.9574 48.1804 13.7216 48.5384C13.4858 48.8963 13.1648 49.1605 12.7585 49.331C12.3523 49.5043 11.8906 49.5909 11.3736 49.5909ZM11.3224 46.2372C11.7429 46.2372 12.1023 46.1364 12.4006 45.9347C12.6989 45.7301 12.9276 45.4375 13.0866 45.0568C13.2457 44.6761 13.3253 44.223 13.3253 43.6974C13.3253 43.1861 13.2472 42.733 13.0909 42.3381C12.9347 41.9403 12.7074 41.6278 12.4091 41.4006C12.1136 41.1705 11.7514 41.0554 11.3224 41.0554C10.8849 41.0554 10.5156 41.1733 10.2145 41.4091C9.91335 41.6449 9.68608 41.9631 9.53267 42.3636C9.37926 42.7614 9.30256 43.206 9.30256 43.6974C9.30256 44.1974 9.38068 44.6392 9.53693 45.0227C9.69318 45.4034 9.92188 45.7017 10.223 45.9176C10.5241 46.1307 10.8906 46.2372 11.3224 46.2372ZM18.7298 47.1364C18.119 47.1364 17.5906 46.9943 17.1445 46.7102C16.6985 46.4233 16.3533 46.027 16.109 45.5213C15.8675 45.0128 15.7468 44.4276 15.7468 43.7656C15.7468 43.1065 15.8675 42.5213 16.109 42.0099C16.3533 41.4957 16.69 41.0937 17.119 40.804C17.5508 40.5114 18.0494 40.3651 18.6147 40.3651C18.9698 40.3651 19.3121 40.4304 19.6417 40.5611C19.9712 40.6889 20.2667 40.8864 20.5281 41.1534C20.7923 41.4176 21.0011 41.7514 21.1545 42.1548C21.3079 42.5554 21.3846 43.0298 21.3846 43.5781V43.9531H16.271V43.2841H20.609C20.609 42.8636 20.5238 42.4858 20.3533 42.1506C20.1857 41.8125 19.9513 41.5455 19.6502 41.3494C19.3519 41.1534 19.0067 41.0554 18.6147 41.0554C18.1999 41.0554 17.8349 41.1662 17.5195 41.3878C17.2042 41.6094 16.957 41.902 16.7781 42.2656C16.6019 42.6293 16.5124 43.027 16.5096 43.4588V43.8594C16.5096 44.3793 16.5991 44.8338 16.7781 45.223C16.9599 45.6094 17.217 45.9091 17.5494 46.1222C17.8817 46.3352 18.2752 46.4418 18.7298 46.4418C19.0394 46.4418 19.3107 46.3935 19.5437 46.2969C19.7795 46.2003 19.9769 46.071 20.136 45.9091C20.2979 45.7443 20.4201 45.5639 20.5025 45.3679L21.2227 45.6023C21.1232 45.8778 20.9599 46.1321 20.7326 46.3651C20.5082 46.598 20.2269 46.7855 19.8888 46.9276C19.5536 47.0668 19.1673 47.1364 18.7298 47.1364ZM23.8146 42.9091V47H23.0561V40.4545H23.7933V41.4815H23.8615C24.0149 41.1463 24.2536 40.8778 24.5774 40.6761C24.9041 40.4716 25.3075 40.3693 25.7876 40.3693C26.228 40.3693 26.6143 40.4616 26.9467 40.6463C27.282 40.8281 27.5419 41.0966 27.7266 41.4517C27.9141 41.8068 28.0078 42.2429 28.0078 42.7599V47H27.2493V42.8068C27.2493 42.2699 27.0987 41.8452 26.7976 41.5327C26.4993 41.2202 26.0987 41.0639 25.5959 41.0639C25.2521 41.0639 24.9467 41.1378 24.6797 41.2855C24.4126 41.4332 24.201 41.6463 24.0447 41.9247C23.8913 42.2003 23.8146 42.5284 23.8146 42.9091ZM32.3619 47.1364C31.8249 47.1364 31.3548 46.9943 30.9513 46.7102C30.5479 46.4261 30.2326 46.0298 30.0053 45.5213C29.7809 45.0128 29.6687 44.4205 29.6687 43.7443C29.6687 43.071 29.7809 42.4815 30.0053 41.9759C30.2326 41.4673 30.5494 41.0724 30.9556 40.7912C31.3619 40.5071 31.8349 40.3651 32.3746 40.3651C32.7724 40.3651 33.1033 40.4361 33.3675 40.5781C33.6317 40.7173 33.8434 40.8906 34.0025 41.098C34.1616 41.3054 34.2852 41.5071 34.3732 41.7031H34.4414V38.2727H35.2042V47H34.4627V45.7855H34.3732C34.2852 45.9844 34.1602 46.1889 33.9982 46.3991C33.8363 46.6065 33.6218 46.7812 33.3548 46.9233C33.0906 47.0653 32.7596 47.1364 32.3619 47.1364ZM32.4513 46.4418C32.8746 46.4418 33.2354 46.3267 33.5337 46.0966C33.832 45.8636 34.0593 45.544 34.2156 45.1378C34.3746 44.7287 34.4542 44.2599 34.4542 43.7315C34.4542 43.2088 34.3761 42.7472 34.2198 42.3466C34.0636 41.9432 33.8363 41.6278 33.538 41.4006C33.2397 41.1705 32.8775 41.0554 32.4513 41.0554C32.0138 41.0554 31.6445 41.1747 31.3434 41.4134C31.0451 41.6491 30.8178 41.9687 30.6616 42.3722C30.5082 42.7756 30.4315 43.2287 30.4315 43.7315C30.4315 44.2401 30.5096 44.6989 30.6658 45.108C30.8221 45.517 31.0494 45.8423 31.3477 46.0838C31.6488 46.3224 32.0167 46.4418 32.4513 46.4418ZM39.1928 47.1491C38.7979 47.1491 38.4371 47.0724 38.1104 46.919C37.7837 46.7628 37.5238 46.5384 37.3306 46.2457C37.1374 45.9503 37.0408 45.5923 37.0408 45.1719C37.0408 44.848 37.1019 44.5753 37.2241 44.3537C37.3462 44.1321 37.5195 43.9503 37.744 43.8082C37.9684 43.6662 38.234 43.554 38.5408 43.4716C38.8477 43.3892 39.1857 43.3253 39.555 43.2798C39.9215 43.2344 40.2312 43.1946 40.484 43.1605C40.7397 43.1264 40.9343 43.0724 41.0678 42.9986C41.2013 42.9247 41.2681 42.8054 41.2681 42.6406V42.4872C41.2681 42.0412 41.1346 41.6903 40.8675 41.4347C40.6033 41.1761 40.2227 41.0469 39.7255 41.0469C39.2539 41.0469 38.869 41.1506 38.5707 41.358C38.2752 41.5653 38.0678 41.8097 37.9485 42.0909L37.2283 41.831C37.3761 41.473 37.5806 41.1875 37.842 40.9744C38.1033 40.7585 38.396 40.6037 38.7198 40.5099C39.0437 40.4134 39.3718 40.3651 39.7042 40.3651C39.9542 40.3651 40.2141 40.3977 40.484 40.4631C40.7567 40.5284 41.0096 40.642 41.2425 40.804C41.4755 40.9631 41.6644 41.1861 41.8093 41.473C41.9542 41.7571 42.0266 42.1179 42.0266 42.5554V47H41.2681V45.9645H41.2212C41.1303 46.1577 40.9954 46.3452 40.8164 46.527C40.6374 46.7088 40.413 46.858 40.1431 46.9744C39.8732 47.0909 39.5565 47.1491 39.1928 47.1491ZM39.2951 46.4545C39.6985 46.4545 40.0479 46.3651 40.3434 46.1861C40.6388 46.0071 40.8661 45.7699 41.0252 45.4744C41.1871 45.1761 41.2681 44.848 41.2681 44.4901V43.544C41.2113 43.598 41.1161 43.6463 40.9826 43.6889C40.8519 43.7315 40.6999 43.7699 40.5266 43.804C40.3562 43.8352 40.1857 43.8622 40.0153 43.8849C39.8448 43.9077 39.6914 43.9276 39.555 43.9446C39.1857 43.9901 38.8704 44.0611 38.609 44.1577C38.3477 44.2543 38.1474 44.3878 38.0082 44.5582C37.869 44.7259 37.7994 44.9418 37.7994 45.206C37.7994 45.6037 37.9414 45.9119 38.2255 46.1307C38.5096 46.3466 38.8661 46.4545 39.2951 46.4545Z" fill="#C3C3C3"/>
<path d="M34 9.99998V7.99998C34 7.29274 33.719 6.61446 33.219 6.11436C32.7189 5.61426 32.0406 5.33331 31.3333 5.33331H12.6667C11.9594 5.33331 11.2811 5.61426 10.781 6.11436C10.281 6.61446 10 7.29274 10 7.99998V26.6666C10 27.3739 10.281 28.0522 10.781 28.5523C11.2811 29.0524 11.9594 29.3333 12.6667 29.3333H17.3333" stroke="#C3C3C3" stroke-width="2.75674" stroke-linecap="round" stroke-linejoin="round"/>
<path d="M27.3333 2.66669V8.00002" stroke="#C3C3C3" stroke-width="2.75674" stroke-linecap="round" stroke-linejoin="round"/>
<path d="M16.6667 2.66669V8.00002" stroke="#C3C3C3" stroke-width="2.75674" stroke-linecap="round" stroke-linejoin="round"/>
<path d="M10 13.3333H16.6667" stroke="#C3C3C3" stroke-width="2.75674" stroke-linecap="round" stroke-linejoin="round"/>
<path d="M29.3333 23.3334L27.3333 21.6667V18.6667" stroke="#C3C3C3" stroke-width="2.75674" stroke-linecap="round" stroke-linejoin="round"/>
<path d="M35.3333 21.3333C35.3333 23.455 34.4905 25.4899 32.9902 26.9902C31.4899 28.4905 29.4551 29.3333 27.3333 29.3333C25.2116 29.3333 23.1768 28.4905 21.6765 26.9902C20.1762 25.4899 19.3333 23.455 19.3333 21.3333C19.3333 19.2116 20.1762 17.1768 21.6765 15.6765C23.1768 14.1762 25.2116 13.3333 27.3333 13.3333C29.4551 13.3333 31.4899 14.1762 32.9902 15.6765C34.4905 17.1768 35.3333 19.2116 35.3333 21.3333Z" stroke="#C3C3C3" stroke-width="2.75674" stroke-linecap="round" stroke-linejoin="round"/>
</svg>
