<svg width="36" height="50" viewBox="0 0 36 50" fill="none" xmlns="http://www.w3.org/2000/svg">
<path d="M1.17188 47H0.336648L3.51136 38.2727H4.36364L7.53835 47H6.70312L3.96733 39.3082H3.90767L1.17188 47ZM1.77273 43.6548H6.10227V44.3707H1.77273V43.6548ZM13.1229 40.4545L10.7322 47H9.92259L7.53196 40.4545H8.3544L10.2976 45.9986H10.3572L12.3004 40.4545H13.1229ZM14.6154 47V40.4545H15.3782V47H14.6154ZM15.0032 39.3295C14.8469 39.3295 14.7134 39.277 14.6026 39.1719C14.4918 39.0639 14.4364 38.9347 14.4364 38.7841C14.4364 38.6335 14.4918 38.5057 14.6026 38.4006C14.7134 38.2926 14.8469 38.2386 15.0032 38.2386C15.1594 38.2386 15.293 38.2926 15.4038 38.4006C15.5146 38.5057 15.57 38.6335 15.57 38.7841C15.57 38.9347 15.5146 39.0639 15.4038 39.1719C15.293 39.277 15.1594 39.3295 15.0032 39.3295ZM21.782 41.8906L21.0874 42.0866C21.0192 41.8906 20.9226 41.7131 20.7976 41.554C20.6726 41.3949 20.5092 41.2685 20.3075 41.1747C20.1087 41.081 19.8615 41.0341 19.5661 41.0341C19.1229 41.0341 18.7592 41.1392 18.4751 41.3494C18.1911 41.5597 18.049 41.831 18.049 42.1634C18.049 42.4446 18.1456 42.6733 18.3388 42.8494C18.5348 43.0227 18.8359 43.1605 19.2422 43.2628L20.2308 43.5057C20.7791 43.6392 21.1896 43.8509 21.4624 44.1406C21.7379 44.4304 21.8757 44.794 21.8757 45.2315C21.8757 45.6009 21.7734 45.929 21.5689 46.2159C21.3643 46.5028 21.0788 46.7287 20.7124 46.8935C20.3487 47.0554 19.9268 47.1364 19.4467 47.1364C18.8075 47.1364 18.2805 46.9929 17.8658 46.706C17.451 46.4162 17.1854 45.9986 17.0689 45.4531L17.7976 45.2741C17.8913 45.6634 18.0746 45.9574 18.3473 46.1562C18.6229 46.3551 18.9851 46.4545 19.4339 46.4545C19.9368 46.4545 20.3388 46.3423 20.6399 46.1179C20.9411 45.8906 21.0916 45.6065 21.0916 45.2656C21.0916 45.0014 21.0036 44.7798 20.8274 44.6009C20.6513 44.419 20.3842 44.2855 20.0263 44.2003L18.9567 43.9446C18.3885 43.8082 17.968 43.5923 17.6953 43.2969C17.4226 43.0014 17.2862 42.6349 17.2862 42.1974C17.2862 41.8366 17.3842 41.5199 17.5803 41.2472C17.7763 40.9716 18.0462 40.7557 18.3899 40.5994C18.7337 40.4432 19.1257 40.3651 19.5661 40.3651C20.1655 40.3651 20.6442 40.5014 21.0021 40.7741C21.3629 41.044 21.6229 41.4162 21.782 41.8906ZM26.0806 47.1364C25.5153 47.1364 25.0153 46.9929 24.5806 46.706C24.1488 46.419 23.8107 46.0227 23.5664 45.517C23.3221 45.0085 23.1999 44.4219 23.1999 43.7571C23.1999 43.0866 23.3221 42.4972 23.5664 41.9886C23.8107 41.4773 24.1488 41.0795 24.5806 40.7955C25.0153 40.5085 25.5153 40.3651 26.0806 40.3651C26.646 40.3651 27.1445 40.5085 27.5763 40.7955C28.0082 41.0824 28.3462 41.4801 28.5906 41.9886C28.8377 42.4972 28.9613 43.0866 28.9613 43.7571C28.9613 44.4219 28.8391 45.0085 28.5948 45.517C28.3505 46.0227 28.011 46.419 27.5763 46.706C27.1445 46.9929 26.646 47.1364 26.0806 47.1364ZM26.0806 46.4418C26.5352 46.4418 26.9201 46.3196 27.2354 46.0753C27.5508 45.831 27.7894 45.5057 27.9513 45.0994C28.1161 44.6932 28.1985 44.2457 28.1985 43.7571C28.1985 43.2685 28.1161 42.8196 27.9513 42.4105C27.7894 42.0014 27.5508 41.6733 27.2354 41.4261C26.9201 41.179 26.5352 41.0554 26.0806 41.0554C25.6289 41.0554 25.244 41.179 24.9258 41.4261C24.6104 41.6733 24.3704 42.0014 24.2056 42.4105C24.0437 42.8196 23.9627 43.2685 23.9627 43.7571C23.9627 44.2457 24.0437 44.6932 24.2056 45.0994C24.3704 45.5057 24.6104 45.831 24.9258 46.0753C25.2411 46.3196 25.6261 46.4418 26.0806 46.4418ZM35.0241 41.8906L34.3295 42.0866C34.2614 41.8906 34.1648 41.7131 34.0398 41.554C33.9148 41.3949 33.7514 41.2685 33.5497 41.1747C33.3509 41.081 33.1037 41.0341 32.8082 41.0341C32.3651 41.0341 32.0014 41.1392 31.7173 41.3494C31.4332 41.5597 31.2912 41.831 31.2912 42.1634C31.2912 42.4446 31.3878 42.6733 31.581 42.8494C31.777 43.0227 32.0781 43.1605 32.4844 43.2628L33.473 43.5057C34.0213 43.6392 34.4318 43.8509 34.7045 44.1406C34.9801 44.4304 35.1179 44.794 35.1179 45.2315C35.1179 45.6009 35.0156 45.929 34.8111 46.2159C34.6065 46.5028 34.321 46.7287 33.9545 46.8935C33.5909 47.0554 33.169 47.1364 32.6889 47.1364C32.0497 47.1364 31.5227 46.9929 31.108 46.706C30.6932 46.4162 30.4276 45.9986 30.3111 45.4531L31.0398 45.2741C31.1335 45.6634 31.3168 45.9574 31.5895 46.1562C31.8651 46.3551 32.2273 46.4545 32.6761 46.4545C33.179 46.4545 33.581 46.3423 33.8821 46.1179C34.1832 45.8906 34.3338 45.6065 34.3338 45.2656C34.3338 45.0014 34.2457 44.7798 34.0696 44.6009C33.8935 44.419 33.6264 44.2855 33.2685 44.2003L32.1989 43.9446C31.6307 43.8082 31.2102 43.5923 30.9375 43.2969C30.6648 43.0014 30.5284 42.6349 30.5284 42.1974C30.5284 41.8366 30.6264 41.5199 30.8224 41.2472C31.0185 40.9716 31.2884 40.7557 31.6321 40.5994C31.9759 40.4432 32.3679 40.3651 32.8082 40.3651C33.4077 40.3651 33.8864 40.5014 34.2443 40.7741C34.6051 41.044 34.8651 41.4162 35.0241 41.8906Z" fill="#243E64"/>
<path d="M28.6667 2.66663H7.33341C5.86066 2.66663 4.66675 3.86053 4.66675 5.33329V10.6666C4.66675 12.1394 5.86066 13.3333 7.33341 13.3333H28.6667C30.1395 13.3333 31.3334 12.1394 31.3334 10.6666V5.33329C31.3334 3.86053 30.1395 2.66663 28.6667 2.66663Z" stroke="#243E64" stroke-width="2.75674" stroke-linecap="round" stroke-linejoin="round"/>
<path d="M28.6667 18.6667H7.33341C5.86066 18.6667 4.66675 19.8606 4.66675 21.3334V26.6667C4.66675 28.1394 5.86066 29.3334 7.33341 29.3334H28.6667C30.1395 29.3334 31.3334 28.1394 31.3334 26.6667V21.3334C31.3334 19.8606 30.1395 18.6667 28.6667 18.6667Z" stroke="#243E64" stroke-width="2.75674" stroke-linecap="round" stroke-linejoin="round"/>
<path d="M10.0001 7.99994H10.016" stroke="#243E64" stroke-width="2.75674" stroke-linecap="round" stroke-linejoin="round"/>
<path d="M10.0001 24H10.016" stroke="#243E64" stroke-width="2.75674" stroke-linecap="round" stroke-linejoin="round"/>
</svg>
