<svg width="36" height="50" viewBox="0 0 36 50" fill="none" xmlns="http://www.w3.org/2000/svg">
<path d="M4.95597 38.2727V47H4.15909V38.2727H4.95597ZM7.87713 42.9091V47H7.11861V40.4545H7.85582V41.4815H7.92401C8.07741 41.1463 8.31605 40.8778 8.63991 40.6761C8.96662 40.4716 9.37003 40.3693 9.85014 40.3693C10.2905 40.3693 10.6768 40.4616 11.0092 40.6463C11.3445 40.8281 11.6044 41.0966 11.7891 41.4517C11.9766 41.8068 12.0703 42.2429 12.0703 42.7599V47H11.3118V42.8068C11.3118 42.2699 11.1612 41.8452 10.8601 41.5327C10.5618 41.2202 10.1612 41.0639 9.65838 41.0639C9.31463 41.0639 9.00923 41.1378 8.74219 41.2855C8.47514 41.4332 8.26349 41.6463 8.10724 41.9247C7.95384 42.2003 7.87713 42.5284 7.87713 42.9091ZM14.0763 47V40.4545H14.8391V47H14.0763ZM14.1104 39.5469L15.2013 37.6122H16.1005L14.7923 39.5469H14.1104ZM19.402 47.1364C18.8168 47.1364 18.3068 46.9901 17.8722 46.6974C17.4403 46.4048 17.1051 46.0043 16.8665 45.4957C16.6278 44.9872 16.5085 44.4077 16.5085 43.7571C16.5085 43.1009 16.6293 42.517 16.8707 42.0057C17.1151 41.4943 17.4531 41.0937 17.8849 40.804C18.3168 40.5114 18.8182 40.3651 19.3892 40.3651C19.8267 40.3651 20.223 40.4503 20.5781 40.6207C20.9332 40.7884 21.2259 41.0256 21.456 41.3324C21.6889 41.6364 21.8352 41.9915 21.8949 42.3977H21.1278C21.0483 42.0284 20.8565 41.7131 20.5526 41.4517C20.2514 41.1875 19.8679 41.0554 19.402 41.0554C18.9844 41.0554 18.6151 41.169 18.294 41.3963C17.973 41.6207 17.7216 41.9347 17.5398 42.3381C17.3608 42.7386 17.2713 43.2031 17.2713 43.7315C17.2713 44.2628 17.3594 44.733 17.5355 45.142C17.7116 45.5483 17.9588 45.8665 18.277 46.0966C18.598 46.3267 18.973 46.4418 19.402 46.4418C19.6918 46.4418 19.956 46.3878 20.1946 46.2798C20.4361 46.169 20.6378 46.0128 20.7997 45.8111C20.9645 45.6094 21.0753 45.3693 21.1321 45.0909H21.8991C21.8423 45.4858 21.7017 45.8381 21.4773 46.1477C21.2557 46.4545 20.9673 46.696 20.6122 46.8722C20.2599 47.0483 19.8565 47.1364 19.402 47.1364ZM23.5334 47V40.4545H24.2962V47H23.5334ZM23.9212 39.3295C23.7649 39.3295 23.6314 39.277 23.5206 39.1719C23.4098 39.0639 23.3544 38.9347 23.3544 38.7841C23.3544 38.6335 23.4098 38.5057 23.5206 38.4006C23.6314 38.2926 23.7649 38.2386 23.9212 38.2386C24.0774 38.2386 24.2109 38.2926 24.3217 38.4006C24.4325 38.5057 24.4879 38.6335 24.4879 38.7841C24.4879 38.9347 24.4325 39.0639 24.3217 39.1719C24.2109 39.277 24.0774 39.3295 23.9212 39.3295ZM28.8462 47.1364C28.2809 47.1364 27.7809 46.9929 27.3462 46.706C26.9144 46.419 26.5763 46.0227 26.332 45.517C26.0877 45.0085 25.9656 44.4219 25.9656 43.7571C25.9656 43.0866 26.0877 42.4972 26.332 41.9886C26.5763 41.4773 26.9144 41.0795 27.3462 40.7955C27.7809 40.5085 28.2809 40.3651 28.8462 40.3651C29.4116 40.3651 29.9102 40.5085 30.342 40.7955C30.7738 41.0824 31.1119 41.4801 31.3562 41.9886C31.6033 42.4972 31.7269 43.0866 31.7269 43.7571C31.7269 44.4219 31.6048 45.0085 31.3604 45.517C31.1161 46.0227 30.7766 46.419 30.342 46.706C29.9102 46.9929 29.4116 47.1364 28.8462 47.1364ZM28.8462 46.4418C29.3008 46.4418 29.6857 46.3196 30.0011 46.0753C30.3164 45.831 30.555 45.5057 30.717 45.0994C30.8817 44.6932 30.9641 44.2457 30.9641 43.7571C30.9641 43.2685 30.8817 42.8196 30.717 42.4105C30.555 42.0014 30.3164 41.6733 30.0011 41.4261C29.6857 41.179 29.3008 41.0554 28.8462 41.0554C28.3945 41.0554 28.0096 41.179 27.6914 41.4261C27.3761 41.6733 27.136 42.0014 26.9712 42.4105C26.8093 42.8196 26.7283 43.2685 26.7283 43.7571C26.7283 44.2457 26.8093 44.6932 26.9712 45.0994C27.136 45.5057 27.3761 45.831 27.6914 46.0753C28.0067 46.3196 28.3917 46.4418 28.8462 46.4418Z" fill="#243E64"/>
<path d="M6 12L18 2.66669L30 12V26.6667C30 27.3739 29.719 28.0522 29.219 28.5523C28.7189 29.0524 28.0406 29.3334 27.3333 29.3334H8.66667C7.95942 29.3334 7.28115 29.0524 6.78105 28.5523C6.28095 28.0522 6 27.3739 6 26.6667V12Z" stroke="#243E64" stroke-width="2.76" stroke-linecap="round" stroke-linejoin="round"/>
<path d="M14 29.3333V16H22V29.3333" stroke="#243E64" stroke-width="2.76" stroke-linecap="round" stroke-linejoin="round"/>
</svg>
