<svg width="40" height="49" viewBox="0 0 40 49" fill="none" xmlns="http://www.w3.org/2000/svg">
<path d="M1.15909 46V37.2727H3.97585C4.59517 37.2727 5.11222 37.3849 5.52699 37.6094C5.9446 37.831 6.25852 38.1392 6.46875 38.5341C6.68182 38.9261 6.78835 39.3764 6.78835 39.8849C6.78835 40.3935 6.68182 40.8423 6.46875 41.2315C6.25852 41.6207 5.94602 41.9247 5.53125 42.1435C5.11648 42.3622 4.60227 42.4716 3.98864 42.4716H1.58949V41.7429H3.96733C4.42188 41.7429 4.79972 41.6676 5.10085 41.517C5.40483 41.3665 5.63068 41.152 5.77841 40.8736C5.92898 40.5952 6.00426 40.2656 6.00426 39.8849C6.00426 39.5043 5.92898 39.1719 5.77841 38.8878C5.62784 38.6009 5.40057 38.3793 5.09659 38.223C4.79545 38.0668 4.41477 37.9886 3.95455 37.9886H1.95597V46H1.15909ZM5.0071 42.0625L7.15483 46H6.23438L4.10795 42.0625H5.0071ZM11.1477 46.1364C10.5369 46.1364 10.0085 45.9943 9.5625 45.7102C9.11648 45.4233 8.77131 45.027 8.52699 44.5213C8.28551 44.0128 8.16477 43.4276 8.16477 42.7656C8.16477 42.1065 8.28551 41.5213 8.52699 41.0099C8.77131 40.4957 9.10795 40.0937 9.53693 39.804C9.96875 39.5114 10.4673 39.3651 11.0327 39.3651C11.3878 39.3651 11.7301 39.4304 12.0597 39.5611C12.3892 39.6889 12.6847 39.8864 12.946 40.1534C13.2102 40.4176 13.419 40.7514 13.5724 41.1548C13.7259 41.5554 13.8026 42.0298 13.8026 42.5781V42.9531H8.68892V42.2841H13.027C13.027 41.8636 12.9418 41.4858 12.7713 41.1506C12.6037 40.8125 12.3693 40.5455 12.0682 40.3494C11.7699 40.1534 11.4247 40.0554 11.0327 40.0554C10.6179 40.0554 10.2528 40.1662 9.9375 40.3878C9.62216 40.6094 9.375 40.902 9.19602 41.2656C9.01989 41.6293 8.9304 42.027 8.92756 42.4588V42.8594C8.92756 43.3793 9.01705 43.8338 9.19602 44.223C9.37784 44.6094 9.63494 44.9091 9.96733 45.1222C10.2997 45.3352 10.6932 45.4418 11.1477 45.4418C11.4574 45.4418 11.7287 45.3935 11.9616 45.2969C12.1974 45.2003 12.3949 45.071 12.554 44.9091C12.7159 44.7443 12.8381 44.5639 12.9205 44.3679L13.6406 44.6023C13.5412 44.8778 13.3778 45.1321 13.1506 45.3651C12.9261 45.598 12.6449 45.7855 12.3068 45.9276C11.9716 46.0668 11.5852 46.1364 11.1477 46.1364ZM16.2326 37.2727V46H15.4741V37.2727H16.2326ZM20.0678 46.1491C19.6729 46.1491 19.3121 46.0724 18.9854 45.919C18.6587 45.7628 18.3988 45.5384 18.2056 45.2457C18.0124 44.9503 17.9158 44.5923 17.9158 44.1719C17.9158 43.848 17.9769 43.5753 18.0991 43.3537C18.2212 43.1321 18.3945 42.9503 18.619 42.8082C18.8434 42.6662 19.109 42.554 19.4158 42.4716C19.7227 42.3892 20.0607 42.3253 20.43 42.2798C20.7965 42.2344 21.1062 42.1946 21.359 42.1605C21.6147 42.1264 21.8093 42.0724 21.9428 41.9986C22.0763 41.9247 22.1431 41.8054 22.1431 41.6406V41.4872C22.1431 41.0412 22.0096 40.6903 21.7425 40.4347C21.4783 40.1761 21.0977 40.0469 20.6005 40.0469C20.1289 40.0469 19.744 40.1506 19.4457 40.358C19.1502 40.5653 18.9428 40.8097 18.8235 41.0909L18.1033 40.831C18.2511 40.473 18.4556 40.1875 18.717 39.9744C18.9783 39.7585 19.271 39.6037 19.5948 39.5099C19.9187 39.4134 20.2468 39.3651 20.5792 39.3651C20.8292 39.3651 21.0891 39.3977 21.359 39.4631C21.6317 39.5284 21.8846 39.642 22.1175 39.804C22.3505 39.9631 22.5394 40.1861 22.6843 40.473C22.8292 40.7571 22.9016 41.1179 22.9016 41.5554V46H22.1431V44.9645H22.0962C22.0053 45.1577 21.8704 45.3452 21.6914 45.527C21.5124 45.7088 21.288 45.858 21.0181 45.9744C20.7482 46.0909 20.4315 46.1491 20.0678 46.1491ZM20.1701 45.4545C20.5735 45.4545 20.9229 45.3651 21.2184 45.1861C21.5138 45.0071 21.7411 44.7699 21.9002 44.4744C22.0621 44.1761 22.1431 43.848 22.1431 43.4901V42.544C22.0863 42.598 21.9911 42.6463 21.8576 42.6889C21.7269 42.7315 21.5749 42.7699 21.4016 42.804C21.2312 42.8352 21.0607 42.8622 20.8903 42.8849C20.7198 42.9077 20.5664 42.9276 20.43 42.9446C20.0607 42.9901 19.7454 43.0611 19.484 43.1577C19.2227 43.2543 19.0224 43.3878 18.8832 43.5582C18.744 43.7259 18.6744 43.9418 18.6744 44.206C18.6744 44.6037 18.8164 44.9119 19.1005 45.1307C19.3846 45.3466 19.7411 45.4545 20.1701 45.4545ZM27.4975 39.4545V40.1151H24.3739V39.4545H27.4975ZM25.3498 37.8864H26.1126V44.2912C26.1126 44.5639 26.1594 44.7784 26.2532 44.9347C26.3469 45.0881 26.4691 45.1974 26.6197 45.2628C26.7702 45.3253 26.9308 45.3565 27.1012 45.3565C27.2006 45.3565 27.2859 45.3509 27.3569 45.3395C27.4279 45.3253 27.4904 45.3111 27.5444 45.2969L27.7063 45.983C27.6325 46.0114 27.5415 46.0369 27.4336 46.0597C27.3256 46.0852 27.1921 46.098 27.033 46.098C26.7546 46.098 26.4862 46.0369 26.2276 45.9148C25.9719 45.7926 25.7617 45.6108 25.5969 45.3693C25.4322 45.1278 25.3498 44.8281 25.3498 44.4702V37.8864ZM31.0483 46.1491C30.6534 46.1491 30.2926 46.0724 29.9659 45.919C29.6392 45.7628 29.3793 45.5384 29.1861 45.2457C28.9929 44.9503 28.8963 44.5923 28.8963 44.1719C28.8963 43.848 28.9574 43.5753 29.0795 43.3537C29.2017 43.1321 29.375 42.9503 29.5994 42.8082C29.8239 42.6662 30.0895 42.554 30.3963 42.4716C30.7031 42.3892 31.0412 42.3253 31.4105 42.2798C31.777 42.2344 32.0866 42.1946 32.3395 42.1605C32.5952 42.1264 32.7898 42.0724 32.9233 41.9986C33.0568 41.9247 33.1236 41.8054 33.1236 41.6406V41.4872C33.1236 41.0412 32.9901 40.6903 32.723 40.4347C32.4588 40.1761 32.0781 40.0469 31.581 40.0469C31.1094 40.0469 30.7244 40.1506 30.4261 40.358C30.1307 40.5653 29.9233 40.8097 29.804 41.0909L29.0838 40.831C29.2315 40.473 29.4361 40.1875 29.6974 39.9744C29.9588 39.7585 30.2514 39.6037 30.5753 39.5099C30.8991 39.4134 31.2273 39.3651 31.5597 39.3651C31.8097 39.3651 32.0696 39.3977 32.3395 39.4631C32.6122 39.5284 32.8651 39.642 33.098 39.804C33.331 39.9631 33.5199 40.1861 33.6648 40.473C33.8097 40.7571 33.8821 41.1179 33.8821 41.5554V46H33.1236V44.9645H33.0767C32.9858 45.1577 32.8509 45.3452 32.6719 45.527C32.4929 45.7088 32.2685 45.858 31.9986 45.9744C31.7287 46.0909 31.4119 46.1491 31.0483 46.1491ZM31.1506 45.4545C31.554 45.4545 31.9034 45.3651 32.1989 45.1861C32.4943 45.0071 32.7216 44.7699 32.8807 44.4744C33.0426 44.1761 33.1236 43.848 33.1236 43.4901V42.544C33.0668 42.598 32.9716 42.6463 32.8381 42.6889C32.7074 42.7315 32.5554 42.7699 32.3821 42.804C32.2116 42.8352 32.0412 42.8622 31.8707 42.8849C31.7003 42.9077 31.5469 42.9276 31.4105 42.9446C31.0412 42.9901 30.7259 43.0611 30.4645 43.1577C30.2031 43.2543 30.0028 43.3878 29.8636 43.5582C29.7244 43.7259 29.6548 43.9418 29.6548 44.206C29.6548 44.6037 29.7969 44.9119 30.081 45.1307C30.3651 45.3466 30.7216 45.4545 31.1506 45.4545ZM35.8999 46V39.4545H36.6371V40.4602H36.6925C36.8232 40.1307 37.0504 39.8651 37.3743 39.6634C37.701 39.4588 38.0703 39.3565 38.4822 39.3565C38.5447 39.3565 38.6143 39.358 38.6911 39.3608C38.7678 39.3636 38.8317 39.3665 38.8828 39.3693V40.1406C38.8487 40.1349 38.7891 40.1264 38.7038 40.1151C38.6186 40.1037 38.5263 40.098 38.4268 40.098C38.0859 40.098 37.782 40.1705 37.5149 40.3153C37.2507 40.4574 37.0419 40.6548 36.8885 40.9077C36.7351 41.1605 36.6584 41.4489 36.6584 41.7727V46H35.8999Z" fill="#C3C3C3"/>
<path d="M20 29.3333C27.3638 29.3333 33.3333 23.3638 33.3333 16C33.3333 8.63619 27.3638 2.66666 20 2.66666C12.6362 2.66666 6.66666 8.63619 6.66666 16C6.66666 23.3638 12.6362 29.3333 20 29.3333Z" stroke="#C3C3C3" stroke-width="2.76" stroke-linecap="round" stroke-linejoin="round"/>
<path d="M20 10.6667V16" stroke="#C3C3C3" stroke-width="2.76" stroke-linecap="round" stroke-linejoin="round"/>
<path d="M20 21.3333H20.0133" stroke="#C3C3C3" stroke-width="2.76" stroke-linecap="round" stroke-linejoin="round"/>
</svg>
