<svg width="43" height="50" viewBox="0 0 43 50" fill="none" xmlns="http://www.w3.org/2000/svg">
<path d="M5.89773 40.4545C5.84943 39.9687 5.63494 39.5824 5.25426 39.2955C4.87358 39.0085 4.39489 38.8651 3.81818 38.8651C3.41193 38.8651 3.05398 38.9347 2.74432 39.0739C2.4375 39.2131 2.19602 39.4062 2.01989 39.6534C1.84659 39.8977 1.75994 40.1761 1.75994 40.4886C1.75994 40.7188 1.80966 40.9205 1.90909 41.0938C2.00852 41.267 2.14205 41.4162 2.30966 41.5412C2.48011 41.6634 2.66761 41.7685 2.87216 41.8565C3.07955 41.9446 3.28835 42.0185 3.49858 42.0781L4.41903 42.3423C4.69744 42.419 4.97585 42.517 5.25426 42.6364C5.53267 42.7557 5.78693 42.9062 6.01705 43.0881C6.25 43.267 6.43608 43.4872 6.57528 43.7486C6.71733 44.0071 6.78835 44.3182 6.78835 44.6818C6.78835 45.1477 6.66761 45.5668 6.42614 45.9389C6.18466 46.3111 5.83807 46.6065 5.38636 46.8253C4.93466 47.0412 4.39347 47.1491 3.76278 47.1491C3.16903 47.1491 2.65341 47.0511 2.21591 46.8551C1.77841 46.6562 1.43466 46.3821 1.18466 46.0327C0.934659 45.6832 0.794034 45.2784 0.762784 44.8182H1.58097C1.60938 45.1619 1.72301 45.4531 1.92188 45.6918C2.12074 45.9304 2.37926 46.1122 2.69744 46.2372C3.01562 46.3594 3.37074 46.4205 3.76278 46.4205C4.19744 46.4205 4.58381 46.348 4.92188 46.2031C5.26278 46.0554 5.52983 45.8509 5.72301 45.5895C5.91903 45.3253 6.01705 45.0185 6.01705 44.669C6.01705 44.3736 5.94034 44.1264 5.78693 43.9276C5.63352 43.7259 5.41903 43.5568 5.14347 43.4205C4.87074 43.2841 4.55398 43.1634 4.19318 43.0582L3.14915 42.7514C2.46449 42.5469 1.93324 42.2642 1.5554 41.9034C1.17756 41.5426 0.988636 41.0824 0.988636 40.5227C0.988636 40.054 1.11364 39.642 1.36364 39.2869C1.61648 38.929 1.95739 38.6506 2.38636 38.4517C2.81818 38.25 3.30256 38.1491 3.83949 38.1491C4.3821 38.1491 4.86222 38.2486 5.27983 38.4474C5.69744 38.6463 6.02841 38.9205 6.27273 39.2699C6.51989 39.6165 6.65199 40.0114 6.66903 40.4545H5.89773ZM11.1946 47.1364C10.5838 47.1364 10.0554 46.9943 9.60938 46.7102C9.16335 46.4233 8.81818 46.027 8.57386 45.5213C8.33239 45.0128 8.21165 44.4276 8.21165 43.7656C8.21165 43.1065 8.33239 42.5213 8.57386 42.0099C8.81818 41.4957 9.15483 41.0937 9.58381 40.804C10.0156 40.5114 10.5142 40.3651 11.0795 40.3651C11.4347 40.3651 11.777 40.4304 12.1065 40.5611C12.4361 40.6889 12.7315 40.8864 12.9929 41.1534C13.2571 41.4176 13.4659 41.7514 13.6193 42.1548C13.7727 42.5554 13.8494 43.0298 13.8494 43.5781V43.9531H8.7358V43.2841H13.0739C13.0739 42.8636 12.9886 42.4858 12.8182 42.1506C12.6506 41.8125 12.4162 41.5455 12.1151 41.3494C11.8168 41.1534 11.4716 41.0554 11.0795 41.0554C10.6648 41.0554 10.2997 41.1662 9.98438 41.3878C9.66903 41.6094 9.42188 41.902 9.2429 42.2656C9.06676 42.6293 8.97727 43.027 8.97443 43.4588V43.8594C8.97443 44.3793 9.06392 44.8338 9.2429 45.223C9.42472 45.6094 9.68182 45.9091 10.0142 46.1222C10.3466 46.3352 10.7401 46.4418 11.1946 46.4418C11.5043 46.4418 11.7756 46.3935 12.0085 46.2969C12.2443 46.2003 12.4418 46.071 12.6009 45.9091C12.7628 45.7443 12.8849 45.5639 12.9673 45.3679L13.6875 45.6023C13.5881 45.8778 13.4247 46.1321 13.1974 46.3651C12.973 46.598 12.6918 46.7855 12.3537 46.9276C12.0185 47.0668 11.6321 47.1364 11.1946 47.1364ZM15.521 47V40.4545H16.2582V41.4602H16.3136C16.4442 41.1307 16.6715 40.8651 16.9954 40.6634C17.3221 40.4588 17.6914 40.3565 18.1033 40.3565C18.1658 40.3565 18.2354 40.358 18.3121 40.3608C18.3888 40.3636 18.4528 40.3665 18.5039 40.3693V41.1406C18.4698 41.1349 18.4102 41.1264 18.3249 41.1151C18.2397 41.1037 18.1474 41.098 18.0479 41.098C17.707 41.098 17.4031 41.1705 17.136 41.3153C16.8718 41.4574 16.663 41.6548 16.5096 41.9077C16.3562 42.1605 16.2795 42.4489 16.2795 42.7727V47H15.521ZM25.0643 40.4545L22.6737 47H21.864L19.4734 40.4545H20.2958L22.239 45.9986H22.2987L24.2418 40.4545H25.0643ZM26.5568 47V40.4545H27.3196V47H26.5568ZM26.9446 39.3295C26.7884 39.3295 26.6548 39.277 26.544 39.1719C26.4332 39.0639 26.3778 38.9347 26.3778 38.7841C26.3778 38.6335 26.4332 38.5057 26.544 38.4006C26.6548 38.2926 26.7884 38.2386 26.9446 38.2386C27.1009 38.2386 27.2344 38.2926 27.3452 38.4006C27.456 38.5057 27.5114 38.6335 27.5114 38.7841C27.5114 38.9347 27.456 39.0639 27.3452 39.1719C27.2344 39.277 27.1009 39.3295 26.9446 39.3295ZM31.8825 47.1364C31.2972 47.1364 30.7873 46.9901 30.3526 46.6974C29.9208 46.4048 29.5856 46.0043 29.3469 45.4957C29.1083 44.9872 28.989 44.4077 28.989 43.7571C28.989 43.1009 29.1097 42.517 29.3512 42.0057C29.5955 41.4943 29.9336 41.0937 30.3654 40.804C30.7972 40.5114 31.2987 40.3651 31.8697 40.3651C32.3072 40.3651 32.7035 40.4503 33.0586 40.6207C33.4137 40.7884 33.7063 41.0256 33.9364 41.3324C34.1694 41.6364 34.3157 41.9915 34.3754 42.3977H33.6083C33.5288 42.0284 33.337 41.7131 33.033 41.4517C32.7319 41.1875 32.3484 41.0554 31.8825 41.0554C31.4648 41.0554 31.0955 41.169 30.7745 41.3963C30.4535 41.6207 30.2021 41.9347 30.0202 42.3381C29.8413 42.7386 29.7518 43.2031 29.7518 43.7315C29.7518 44.2628 29.8398 44.733 30.016 45.142C30.1921 45.5483 30.4393 45.8665 30.7575 46.0966C31.0785 46.3267 31.4535 46.4418 31.8825 46.4418C32.1722 46.4418 32.4364 46.3878 32.6751 46.2798C32.9165 46.169 33.1183 46.0128 33.2802 45.8111C33.445 45.6094 33.5558 45.3693 33.6126 45.0909H34.3796C34.3228 45.4858 34.1822 45.8381 33.9577 46.1477C33.7362 46.4545 33.4478 46.696 33.0927 46.8722C32.7404 47.0483 32.337 47.1364 31.8825 47.1364ZM31.4947 46.9659H32.1424L32.0785 47.3068C32.3228 47.3438 32.5302 47.4418 32.7006 47.6009C32.8739 47.7628 32.962 47.9986 32.9648 48.3082C32.962 48.652 32.8271 48.9247 32.56 49.1264C32.2958 49.3281 31.9052 49.4318 31.3881 49.4375L31.3626 48.9048C31.6438 48.8991 31.8654 48.8509 32.0273 48.7599C32.1893 48.6719 32.2702 48.5284 32.2702 48.3295C32.2702 48.1165 32.195 47.9659 32.0444 47.8778C31.8967 47.7898 31.6623 47.7372 31.3413 47.7202L31.4947 46.9659ZM38.5494 47.1364C37.984 47.1364 37.484 46.9929 37.0494 46.706C36.6175 46.419 36.2795 46.0227 36.0352 45.517C35.7908 45.0085 35.6687 44.4219 35.6687 43.7571C35.6687 43.0866 35.7908 42.4972 36.0352 41.9886C36.2795 41.4773 36.6175 41.0795 37.0494 40.7955C37.484 40.5085 37.984 40.3651 38.5494 40.3651C39.1147 40.3651 39.6133 40.5085 40.0451 40.7955C40.4769 41.0824 40.815 41.4801 41.0593 41.9886C41.3065 42.4972 41.43 43.0866 41.43 43.7571C41.43 44.4219 41.3079 45.0085 41.0636 45.517C40.8192 46.0227 40.4798 46.419 40.0451 46.706C39.6133 46.9929 39.1147 47.1364 38.5494 47.1364ZM38.5494 46.4418C39.0039 46.4418 39.3888 46.3196 39.7042 46.0753C40.0195 45.831 40.2582 45.5057 40.4201 45.0994C40.5849 44.6932 40.6673 44.2457 40.6673 43.7571C40.6673 43.2685 40.5849 42.8196 40.4201 42.4105C40.2582 42.0014 40.0195 41.6733 39.7042 41.4261C39.3888 41.179 39.0039 41.0554 38.5494 41.0554C38.0977 41.0554 37.7127 41.179 37.3945 41.4261C37.0792 41.6733 36.8391 42.0014 36.6744 42.4105C36.5124 42.8196 36.4315 43.2685 36.4315 43.7571C36.4315 44.2457 36.5124 44.6932 36.6744 45.0994C36.8391 45.5057 37.0792 45.831 37.3945 46.0753C37.7099 46.3196 38.0948 46.4418 38.5494 46.4418Z" fill="#243E64"/>
<path d="M27.3333 28V25.3333C27.3333 23.9188 26.7714 22.5623 25.7712 21.5621C24.771 20.5619 23.4144 20 21.9999 20H13.9999C12.5854 20 11.2289 20.5619 10.2287 21.5621C9.2285 22.5623 8.6666 23.9188 8.6666 25.3333V28" stroke="#243E64" stroke-width="2.75674" stroke-linecap="round" stroke-linejoin="round"/>
<path d="M18 14.6667C20.9455 14.6667 23.3333 12.2789 23.3333 9.33333C23.3333 6.38781 20.9455 4 18 4C15.0544 4 12.6666 6.38781 12.6666 9.33333C12.6666 12.2789 15.0544 14.6667 18 14.6667Z" stroke="#243E64" stroke-width="2.75674" stroke-linecap="round" stroke-linejoin="round"/>
<path d="M35.3333 28V25.3333C35.3324 24.1516 34.9391 23.0037 34.2151 22.0698C33.4911 21.1358 32.4774 20.4688 31.3333 20.1733" stroke="#243E64" stroke-width="2.75674" stroke-linecap="round" stroke-linejoin="round"/>
<path d="M27.3333 4.17334C28.4805 4.46707 29.4973 5.13427 30.2235 6.06975C30.9496 7.00523 31.3437 8.15578 31.3437 9.34001C31.3437 10.5242 30.9496 11.6748 30.2235 12.6103C29.4973 13.5457 28.4805 14.2129 27.3333 14.5067" stroke="#243E64" stroke-width="2.75674" stroke-linecap="round" stroke-linejoin="round"/>
</svg>
